# xmcd CD database file
#
# Track frame offsets:
#	150
#	14800
#	39270
#	60075
#	96258
#	135963
#	161678
#	181768
#
# Disc length: 2530 seconds
#
# Revision: 0
# Processed by: cddbd v1.5.1PL2 Copyright (c) Steve Scherf et al.
# Submitted via: CDex 1.51
#
DISCID=5809e008
DTITLE=Namys³owski The Q - Open
DYEAR=1987
DGENRE=Jazz
TTITLE0=Double Trouble Blues
TTITLE1=Cuban Tango Mohito
TTITLE2=Bop - Berek
TTITLE3=3 x Spagetti
TTITLE4=Rachitic March
TTITLE5=Who Can I Turn To
TTITLE6=Very Sad Bossa Nova
TTITLE7=Cy To Blues, Cy Nie Blues
EXTD=YEAR: 1987
EXTT0=
EXTT1=
EXTT2=
EXTT3=
EXTT4=
EXTT5=
EXTT6=
EXTT7=
PLAYORDER=
